<svg width="18" height="19" viewBox="0 0 18 19" fill="none" xmlns="http://www.w3.org/2000/svg">
<path d="M12.3203 11.7424H11.5438L11.2686 11.477C12.2652 10.321 12.8129 8.84525 12.8118 7.319C12.8118 6.05531 12.4371 4.82001 11.735 3.76929C11.033 2.71857 10.0351 1.89964 8.8676 1.41605C7.7001 0.932456 6.41543 0.805926 5.17602 1.05246C3.93662 1.29899 2.79815 1.90751 1.90459 2.80108C1.01103 3.69464 0.402508 4.8331 0.155975 6.07251C-0.0905581 7.31191 0.0359715 8.59659 0.519563 9.76408C1.00315 10.9316 1.82209 11.9294 2.8728 12.6315C3.92352 13.3336 5.15883 13.7083 6.42251 13.7083C8.0051 13.7083 9.45989 13.1284 10.5805 12.165L10.8459 12.4403V13.2168L15.7607 18.1218L17.2254 16.6572L12.3203 11.7424ZM6.42251 11.7424C3.97492 11.7424 1.99915 9.76659 1.99915 7.319C1.99915 4.8714 3.97492 2.89563 6.42251 2.89563C8.87011 2.89563 10.8459 4.8714 10.8459 7.319C10.8459 9.76659 8.87011 11.7424 6.42251 11.7424Z" fill="#464646"/>
</svg>
